<svg xmlns="http://www.w3.org/2000/svg" xml:space="preserve" width="655.359" height="655.359" style="shape-rendering:geometricPrecision;text-rendering:geometricPrecision;image-rendering:optimizeQuality;fill-rule:evenodd;clip-rule:evenodd" viewBox="0 0 6.827 6.827"><defs><style>.str0{stroke:#212121;stroke-width:.213335}.fil1{fill:none}.fil0{fill:#212121;fill-rule:nonzero}</style></defs><g id="Layer_x0020_1"><g id="_435216304"><path id="_435216976" class="fil0" d="M5.173 2.424c.08.021.156.05.228.089a.857.857 0 0 1 .465.794.864.864 0 0 1-.586.792c-.126.046-.26.066-.393.066H2.99c-.137 0-.274-.021-.402-.069a.9.9 0 0 1-.322-.204.858.858 0 0 1-.255-.617.877.877 0 0 1 .255-.616.9.9 0 0 1 .322-.204c.128-.048.265-.07.402-.07h.117a.994.994 0 0 1 .102-.352.92.92 0 0 1 .299-.34c.09-.063.19-.11.295-.141a1.165 1.165 0 0 1 .668 0c.106.03.207.078.298.141a.918.918 0 0 1 .303.349c.059.118.091.247.1.382zm.132.268a.868.868 0 0 0-.25-.085l-.083-.016v-.085a.83.83 0 0 0-.082-.374.715.715 0 0 0-.236-.27.843.843 0 0 0-.24-.115.962.962 0 0 0-.552 0 .845.845 0 0 0-.237.114.717.717 0 0 0-.234.265.82.82 0 0 0-.085.363l-.002.101h-.313a.947.947 0 0 0-.33.056.696.696 0 0 0-.25.158.654.654 0 0 0-.195.471.674.674 0 0 0 .194.472.696.696 0 0 0 .25.158.947.947 0 0 0 .33.056h1.897a.951.951 0 0 0 .323-.053.707.707 0 0 0 .248-.152.654.654 0 0 0 .165-.702.652.652 0 0 0-.318-.362z"/><path id="_435217240" class="fil0" d="M1.827 1.986h.224c.009-.423.247-.696.55-.817a1.012 1.012 0 0 1 .748 0c.152.06.288.16.386.298a1.164 1.164 0 0 0-.193.085.666.666 0 0 0-.27-.194.806.806 0 0 0-.596 0c-.236.095-.421.312-.421.653a.79.79 0 0 0 .003.068l.01.112h-.442c-.32 0-.524.148-.611.339a.561.561 0 0 0 0 .468c.087.19.29.339.612.339h.085c.004.069.016.138.035.204h-.12c-.413 0-.68-.201-.797-.459a.765.765 0 0 1 0-.637c.118-.257.384-.459.797-.459z"/><path id="_435217408" class="fil1 str0" d="M2.364 4.347c-.55.863.698.75 0 0z"/><path id="_435215944" class="fil1 str0" d="M5.45 5.227c-.378.759.639.557 0 0z"/><path id="_435216544" class="fil1 str0" d="M3.465 4.368c-.617.818.636.803 0 0z"/><path id="_435216256" class="fil1 str0" d="M2.95 5.121c-.641.8.612.82 0 0z"/><path id="_435216496" class="fil1 str0" d="M4.714 4.367c-.53.877.716.733 0 0z"/><path id="_435216472" class="fil1 str0" d="M4.015 5.12c-.529.877.716.733 0 0z"/></g></g><path class="fil1" d="M0 0h6.827v6.827H0z"/></svg>